<svg width="47" height="46" viewBox="0 0 47 46" fill="none" xmlns="http://www.w3.org/2000/svg">
<circle cx="22" cy="22" r="22" fill="#F1DC6E"/>
<rect x="3" y="2" width="44" height="44" rx="22" fill="#33394F"/>
<path d="M25.0201 14.91C21.7101 14.91 19.0201 17.6 19.0201 20.91V23.8C19.0201 24.41 18.7601 25.34 18.4501 25.86L17.3001 27.77C16.5901 28.95 17.0801 30.26 18.3801 30.7C22.6901 32.14 27.3401 32.14 31.6501 30.7C32.8601 30.3 33.3901 28.87 32.7301 27.77L31.5801 25.86C31.2801 25.34 31.0201 24.41 31.0201 23.8V20.91C31.0201 17.61 28.3201 14.91 25.0201 14.91Z" stroke="#D1CAFF" stroke-width="1.5" stroke-miterlimit="10" stroke-linecap="round"/>
<path d="M26.8699 15.2C25.6606 14.8556 24.3792 14.8556 23.1699 15.2C23.4599 14.46 24.1799 13.94 25.0199 13.94C25.8599 13.94 26.5799 14.46 26.8699 15.2Z" stroke="#D1CAFF" stroke-width="1.5" stroke-miterlimit="10" stroke-linecap="round" stroke-linejoin="round"/>
<path d="M28.02 31.06C28.02 32.71 26.67 34.06 25.02 34.06C24.2 34.06 23.44 33.72 22.9 33.18C22.3382 32.6173 22.0218 31.8552 22.02 31.06" stroke="#D1CAFF" stroke-width="1.5" stroke-miterlimit="10"/>
</svg>
