<svg width="38" height="39" viewBox="0 0 38 39" fill="none" xmlns="http://www.w3.org/2000/svg">
<g clip-path="url(#clip0_374_227)">
<path d="M19 3.92349C24.0732 3.92349 24.6741 3.9428 26.6776 4.03421C28.53 4.11876 29.5361 4.42828 30.2057 4.68841C31.0925 5.03308 31.7255 5.44488 32.3903 6.10971C33.0551 6.77454 33.4669 7.40755 33.8115 8.29434C34.0717 8.96393 34.3812 9.96996 34.4658 11.8224C34.5572 13.8259 34.5765 14.4268 34.5765 19.5C34.5765 24.5733 34.5572 25.1742 34.4658 27.1776C34.3812 29.0301 34.0717 30.0361 33.8115 30.7057C33.4669 31.5925 33.0551 32.2255 32.3903 32.8904C31.7255 33.5552 31.0925 33.967 30.2057 34.3116C29.5361 34.5718 28.53 34.8813 26.6776 34.9659C24.6744 35.0573 24.0735 35.0766 19 35.0766C13.9264 35.0766 13.3255 35.0573 11.3224 34.9659C9.46989 34.8813 8.46385 34.5718 7.79434 34.3116C6.90747 33.967 6.27447 33.5552 5.60963 32.8904C4.9448 32.2255 4.53301 31.5925 4.18841 30.7057C3.92821 30.0361 3.61868 29.0301 3.53413 27.1777C3.44272 25.1742 3.42342 24.5733 3.42342 19.5C3.42342 14.4268 3.44272 13.8259 3.53413 11.8224C3.61868 9.96996 3.92821 8.96393 4.18841 8.29434C4.53301 7.40755 4.9448 6.77454 5.60963 6.10971C6.27447 5.44488 6.90747 5.03308 7.79434 4.68841C8.46385 4.42828 9.46989 4.11876 11.3223 4.03421C13.3258 3.9428 13.9267 3.92349 19 3.92349ZM19 0.5C13.8398 0.5 13.1929 0.521872 11.1663 0.614338C9.14392 0.706652 7.76282 1.02779 6.5542 1.49751C5.30478 1.98307 4.2452 2.63274 3.18893 3.68901C2.13267 4.74528 1.483 5.80486 0.997438 7.05428C0.527718 8.26289 0.206577 9.644 0.114262 11.6664C0.0217966 13.6929 0 14.3399 0 19.5C0 24.6602 0.0217966 25.3072 0.114262 27.3337C0.206577 29.3561 0.527718 30.7372 0.997438 31.9458C1.483 33.1951 2.13267 34.2548 3.18893 35.3111C4.2452 36.3673 5.30478 37.017 6.5542 37.5026C7.76282 37.9723 9.14392 38.2934 11.1663 38.3857C13.1929 38.4782 13.8398 38.5 19 38.5C24.1601 38.5 24.8071 38.4782 26.8336 38.3857C28.856 38.2934 30.2371 37.9723 31.4457 37.5026C32.6951 37.017 33.7547 36.3673 34.811 35.3111C35.8673 34.2548 36.5169 33.1952 37.0025 31.9458C37.4722 30.7372 37.7933 29.3561 37.8857 27.3337C37.9781 25.3072 38 24.6602 38 19.5C38 14.3399 37.9781 13.6929 37.8857 11.6664C37.7933 9.644 37.4722 8.26289 37.0025 7.05428C36.5169 5.80486 35.8673 4.74528 34.811 3.68901C33.7547 2.63274 32.6951 1.98307 31.4457 1.49751C30.2371 1.02779 28.856 0.706652 26.8336 0.614338C24.8071 0.521872 24.1601 0.5 19 0.5ZM19 9.74325C13.6115 9.74325 9.24317 14.1115 9.24317 19.5C9.24317 24.8885 13.6115 29.2568 19 29.2568C24.3885 29.2568 28.7568 24.8885 28.7568 19.5C28.7568 14.1115 24.3885 9.74325 19 9.74325ZM19 25.8334C15.5022 25.8334 12.6666 22.9978 12.6666 19.5C12.6666 16.0023 15.5022 13.1667 19 13.1667C22.4977 13.1667 25.3333 16.0023 25.3333 19.5C25.3333 22.9978 22.4977 25.8334 19 25.8334ZM31.4222 9.35777C31.4222 10.617 30.4014 11.6378 29.1422 11.6378C27.883 11.6378 26.8622 10.617 26.8622 9.35777C26.8622 8.09855 27.883 7.07781 29.1422 7.07781C30.4014 7.07781 31.4222 8.09855 31.4222 9.35777Z" fill="#0A0A08"/>
</g>
<defs>
<clipPath id="clip0_374_227">
<rect width="38" height="38" fill="white" transform="translate(0 0.5)"/>
</clipPath>
</defs>
</svg>
