<svg width="36" height="36" viewBox="0 0 36 36" fill="none" xmlns="http://www.w3.org/2000/svg">
<rect width="36" height="36" rx="12" fill="#DDDDDD"/>
<path d="M7.84999 30.5428C7.42999 30.5428 7.02166 30.4378 6.67166 30.2278C5.88999 29.7728 5.44666 28.8628 5.44666 27.7312V14.4778C5.44666 11.9928 7.46499 9.97449 9.94999 9.97449H19.0267C21.5117 9.97449 23.53 11.9928 23.53 14.4778V27.7312C23.53 28.8628 23.0867 29.7612 22.305 30.2278C21.5233 30.6828 20.52 30.6362 19.5283 30.0878L14.9433 27.5328C14.7217 27.4045 14.255 27.4045 14.0333 27.5328L9.44832 30.0878C8.91166 30.3912 8.36332 30.5428 7.84999 30.5428ZM9.96166 11.7362C8.44499 11.7362 7.20832 12.9728 7.20832 14.4895V27.7428C7.20832 28.2212 7.34832 28.5945 7.56999 28.7228C7.79166 28.8512 8.18832 28.7928 8.60832 28.5595L13.1933 26.0045C13.94 25.5962 15.06 25.5962 15.8067 26.0045L20.3917 28.5595C20.8117 28.7928 21.1967 28.8512 21.43 28.7228C21.6517 28.5945 21.7917 28.2212 21.7917 27.7428V14.4895C21.7917 12.9728 20.555 11.7362 19.0383 11.7362H9.96166Z" fill="#999999"/>
<path d="M21.1383 30.5417C20.625 30.5417 20.0883 30.39 19.54 30.0983L14.955 27.5433C14.7333 27.4267 14.255 27.4267 14.0333 27.5433L9.45998 30.0983C8.46831 30.6467 7.45331 30.6933 6.68331 30.2383C5.90165 29.7833 5.45831 28.8733 5.45831 27.7533V14.5C5.45831 12.015 7.47665 9.99667 9.96165 9.99667H19.0383C21.5233 9.99667 23.5416 12.015 23.5416 14.5V27.7533C23.5416 28.8733 23.0983 29.7833 22.3166 30.2383C21.9666 30.4367 21.57 30.5417 21.1383 30.5417ZM14.5 25.7C14.9666 25.7 15.4216 25.805 15.8066 26.015L20.3916 28.57C20.8116 28.8033 21.2083 28.8617 21.43 28.7217C21.6516 28.5933 21.7916 28.22 21.7916 27.7417V14.4883C21.7916 12.9717 20.555 11.735 19.0383 11.735H9.96165C8.44498 11.735 7.20831 12.9717 7.20831 14.4883V27.7417C7.20831 28.22 7.34831 28.5933 7.56998 28.7217C7.79165 28.85 8.18831 28.7917 8.60831 28.5583L13.1933 26.0033C13.5666 25.805 14.0333 25.7 14.5 25.7Z" fill="#999999"/>
<path d="M28.1383 26.0173C27.625 26.0173 27.0883 25.8657 26.54 25.574L22.235 23.1707C22.0993 23.0963 21.9864 22.9864 21.9083 22.8529C21.8303 22.7193 21.7899 22.567 21.7916 22.4123V14.5023C21.7916 12.9857 20.555 11.749 19.0383 11.749H13.3333C12.855 11.749 12.4583 11.3523 12.4583 10.874V9.97565C12.4583 7.49065 14.4766 5.47232 16.9616 5.47232H26.0383C28.5233 5.47232 30.5416 7.49065 30.5416 9.97565V23.229C30.5416 24.349 30.0983 25.259 29.3166 25.714C28.9666 25.9123 28.57 26.0173 28.1383 26.0173ZM23.5416 21.8873L27.3916 24.0457C27.8116 24.279 28.1966 24.3373 28.43 24.1973C28.6633 24.0573 28.7916 23.6957 28.7916 23.2173V9.96399C28.7916 8.44732 27.555 7.21065 26.0383 7.21065H16.9616C15.445 7.21065 14.2083 8.44732 14.2083 9.96399V9.98732H19.0383C21.5233 9.98732 23.5416 12.0057 23.5416 14.4907V21.8873Z" fill="#999999"/>
</svg>
