<svg width="36" height="36" viewBox="0 0 36 36" fill="none" xmlns="http://www.w3.org/2000/svg">
<rect width="36" height="36" rx="12" fill="#DDDDDD"/>
<path d="M7.85011 30.5428C7.43011 30.5428 7.02178 30.4378 6.67178 30.2278C5.89011 29.7728 5.44678 28.8628 5.44678 27.7312V14.4778C5.44678 11.9928 7.46511 9.9745 9.95011 9.9745H19.0268C21.5118 9.9745 23.5301 11.9928 23.5301 14.4778V27.7312C23.5301 28.8628 23.0868 29.7612 22.3051 30.2278C21.5234 30.6828 20.5201 30.6362 19.5284 30.0878L14.9434 27.5328C14.7218 27.4045 14.2551 27.4045 14.0334 27.5328L9.44844 30.0878C8.91178 30.3912 8.36344 30.5428 7.85011 30.5428ZM9.96178 11.7362C8.44511 11.7362 7.20844 12.9728 7.20844 14.4895V27.7428C7.20844 28.2212 7.34844 28.5945 7.57011 28.7228C7.79178 28.8512 8.18844 28.7928 8.60844 28.5595L13.1934 26.0045C13.9401 25.5962 15.0601 25.5962 15.8068 26.0045L20.3918 28.5595C20.8118 28.7928 21.1968 28.8512 21.4301 28.7228C21.6518 28.5945 21.7918 28.2212 21.7918 27.7428V14.4895C21.7918 12.9728 20.5551 11.7362 19.0384 11.7362H9.96178Z" fill="#999999"/>
<path d="M21.1383 30.5417C20.6249 30.5417 20.0883 30.39 19.5399 30.0983L14.9549 27.5433C14.7333 27.4267 14.2549 27.4267 14.0333 27.5433L9.45992 30.0983C8.46825 30.6467 7.45325 30.6933 6.68325 30.2383C5.90159 29.7833 5.45825 28.8733 5.45825 27.7533V14.5C5.45825 12.015 7.47659 9.99667 9.96159 9.99667H19.0383C21.5233 9.99667 23.5416 12.015 23.5416 14.5V27.7533C23.5416 28.8733 23.0983 29.7833 22.3166 30.2383C21.9666 30.4367 21.5699 30.5417 21.1383 30.5417ZM14.4999 25.7C14.9666 25.7 15.4216 25.805 15.8066 26.015L20.3916 28.57C20.8116 28.8033 21.2083 28.8617 21.4299 28.7217C21.6516 28.5933 21.7916 28.22 21.7916 27.7417V14.4883C21.7916 12.9717 20.5549 11.735 19.0383 11.735H9.96159C8.44492 11.735 7.20825 12.9717 7.20825 14.4883V27.7417C7.20825 28.22 7.34825 28.5933 7.56992 28.7217C7.79159 28.85 8.18825 28.7917 8.60825 28.5583L13.1933 26.0033C13.5666 25.805 14.0333 25.7 14.4999 25.7Z" fill="#999999"/>
<path d="M28.1383 26.0173C27.6249 26.0173 27.0883 25.8657 26.5399 25.574L22.2349 23.1707C22.0993 23.0963 21.9864 22.9864 21.9083 22.8529C21.8302 22.7193 21.7899 22.567 21.7916 22.4123V14.5023C21.7916 12.9857 20.5549 11.749 19.0383 11.749H13.3333C12.8549 11.749 12.4583 11.3523 12.4583 10.874V9.97567C12.4583 7.49067 14.4766 5.47234 16.9616 5.47234H26.0383C28.5233 5.47234 30.5416 7.49067 30.5416 9.97567V23.229C30.5416 24.349 30.0983 25.259 29.3166 25.714C28.9666 25.9123 28.5699 26.0173 28.1383 26.0173ZM23.5416 21.8873L27.3916 24.0457C27.8116 24.279 28.1966 24.3373 28.4299 24.1973C28.6633 24.0573 28.7916 23.6957 28.7916 23.2173V9.964C28.7916 8.44734 27.5549 7.21067 26.0383 7.21067H16.9616C15.4449 7.21067 14.2083 8.44734 14.2083 9.964V9.98734H19.0383C21.5233 9.98734 23.5416 12.0057 23.5416 14.4907V21.8873Z" fill="#999999"/>
</svg>
