<svg width="26" height="27" viewBox="0 0 26 27" fill="none" xmlns="http://www.w3.org/2000/svg">
<path d="M19.5 23.6291C21.2949 23.6291 22.75 22.174 22.75 20.3791C22.75 18.5842 21.2949 17.1291 19.5 17.1291C17.7051 17.1291 16.25 18.5842 16.25 20.3791C16.25 22.174 17.7051 23.6291 19.5 23.6291Z" stroke="#999999" stroke-width="2" stroke-linecap="round" stroke-linejoin="round"/>
<path d="M6.5 10.6291C8.29493 10.6291 9.75 9.17405 9.75 7.37912C9.75 5.58419 8.29493 4.12912 6.5 4.12912C4.70507 4.12912 3.25 5.58419 3.25 7.37912C3.25 9.17405 4.70507 10.6291 6.5 10.6291Z" stroke="#999999" stroke-width="2" stroke-linecap="round" stroke-linejoin="round"/>
<path d="M14.0833 7.37912H17.3333C17.9079 7.37912 18.459 7.60739 18.8653 8.01372C19.2716 8.42005 19.4999 8.97115 19.4999 9.54579V17.1291" stroke="#999999" stroke-width="2" stroke-linecap="round" stroke-linejoin="round"/>
<path d="M6.5 10.6291V23.6291" stroke="#999999" stroke-width="2" stroke-linecap="round" stroke-linejoin="round"/>
</svg>
