<svg width="47" height="46" viewBox="0 0 47 46" fill="none" xmlns="http://www.w3.org/2000/svg">
<circle cx="22" cy="22" r="22" fill="#F1DC6E"/>
<rect x="3" y="2" width="44" height="44" rx="22" fill="#33394F"/>
<path d="M25.02 14.91C21.71 14.91 19.02 17.6 19.02 20.91V23.8C19.02 24.41 18.76 25.34 18.45 25.86L17.3 27.77C16.59 28.95 17.08 30.26 18.38 30.7C22.69 32.14 27.34 32.14 31.65 30.7C32.86 30.3 33.39 28.87 32.73 27.77L31.58 25.86C31.28 25.34 31.02 24.41 31.02 23.8V20.91C31.02 17.61 28.32 14.91 25.02 14.91Z" stroke="#D1CAFF" stroke-width="1.5" stroke-miterlimit="10" stroke-linecap="round"/>
<path d="M26.87 15.2C25.6608 14.8556 24.3793 14.8556 23.17 15.2C23.46 14.46 24.18 13.94 25.02 13.94C25.86 13.94 26.58 14.46 26.87 15.2Z" stroke="#D1CAFF" stroke-width="1.5" stroke-miterlimit="10" stroke-linecap="round" stroke-linejoin="round"/>
<path d="M28.02 31.06C28.02 32.71 26.67 34.06 25.02 34.06C24.2 34.06 23.44 33.72 22.9 33.18C22.3382 32.6173 22.0218 31.8552 22.02 31.06" stroke="#D1CAFF" stroke-width="1.5" stroke-miterlimit="10"/>
</svg>
