<svg width="24" height="24" viewBox="0 0 24 24" fill="none" xmlns="http://www.w3.org/2000/svg">
<path d="M10.8 22.098C10.51 22.098 10.22 22.048 9.94998 21.948C8.69998 21.538 7.89998 20.158 8.17998 18.878L8.66998 15.728C8.67998 15.658 8.67998 15.558 8.60998 15.478C8.58357 15.4521 8.55231 15.4317 8.51798 15.418C8.48365 15.4043 8.44694 15.3975 8.40998 15.398H4.40998C3.42998 15.398 2.57998 14.988 2.07998 14.278C1.58998 13.588 1.48998 12.678 1.80998 11.798L4.19998 4.51801C4.56998 3.06801 6.11998 1.89801 7.71998 1.89801H11.52C12.08 1.89801 13.3 2.06801 13.95 2.71801L16.98 5.05801L16.06 6.24801L12.96 3.84801C12.71 3.59801 12.08 3.39801 11.52 3.39801H7.71998C6.81998 3.39801 5.84998 4.11801 5.64998 4.92801L3.22998 12.278C3.06998 12.718 3.09998 13.118 3.30998 13.408C3.52998 13.718 3.92998 13.898 4.41998 13.898H8.41998C8.93998 13.898 9.41998 14.118 9.74998 14.498C10.09 14.888 10.24 15.408 10.16 15.948L9.65998 19.158C9.53998 19.718 9.91998 20.348 10.46 20.528C10.94 20.708 11.58 20.448 11.8 20.128L15.9 14.028L17.14 14.868L13.04 20.968C12.57 21.668 11.68 22.098 10.8 22.098Z" fill="#FC728B"/>
<path d="M19.62 18.1H18.62C16.77 18.1 15.87 17.23 15.87 15.45V5.65C15.87 3.87 16.77 3 18.62 3H19.62C21.47 3 22.37 3.87 22.37 5.65V15.45C22.37 17.23 21.47 18.1 19.62 18.1ZM18.62 4.5C17.53 4.5 17.37 4.76 17.37 5.65V15.45C17.37 16.34 17.53 16.6 18.62 16.6H19.62C20.71 16.6 20.87 16.34 20.87 15.45V5.65C20.87 4.76 20.71 4.5 19.62 4.5H18.62Z" fill="#FC728B"/>
</svg>
