<svg width="24" height="24" viewBox="0 0 24 24" fill="none" xmlns="http://www.w3.org/2000/svg">
<g clip-path="url(#clip0_307_3503)">
<path d="M17.28 23.1H13.48C12.92 23.1 11.7 22.93 11.05 22.28L8.01999 19.94L8.93999 18.75L12.04 21.15C12.29 21.39 12.92 21.59 13.48 21.59H17.28C18.18 21.59 19.15 20.87 19.35 20.06L21.77 12.71C21.93 12.27 21.9 11.87 21.69 11.58C21.47 11.27 21.07 11.09 20.58 11.09H16.58C16.06 11.09 15.58 10.87 15.25 10.49C14.91 10.1 14.76 9.57999 14.84 9.03999L15.34 5.82999C15.46 5.26999 15.08 4.63999 14.54 4.45999C14.05 4.27999 13.42 4.53999 13.2 4.85999L9.09999 10.96L7.85999 10.13L11.96 4.02999C12.59 3.08999 13.97 2.63999 15.05 3.04999C16.3 3.45999 17.1 4.83999 16.82 6.11999L16.33 9.26999C16.32 9.33999 16.32 9.43999 16.39 9.51999C16.44 9.56999 16.51 9.59999 16.59 9.59999H20.59C21.57 9.59999 22.42 10.01 22.92 10.72C23.41 11.41 23.51 12.32 23.19 13.2L20.8 20.48C20.43 21.93 18.89 23.1 17.28 23.1Z" fill="#FC728B"/>
<path d="M6.38 21.998H5.38C3.53 21.998 2.63 21.128 2.63 19.348V9.54801C2.63 7.76801 3.53 6.89801 5.38 6.89801H6.38C8.23 6.89801 9.13 7.76801 9.13 9.54801V19.348C9.13 21.128 8.23 21.998 6.38 21.998ZM5.38 8.39801C4.29 8.39801 4.13001 8.65801 4.13001 9.54801V19.348C4.13001 20.238 4.29 20.498 5.38 20.498H6.38C7.47001 20.498 7.63 20.238 7.63 19.348V9.54801C7.63 8.65801 7.47001 8.39801 6.38 8.39801H5.38Z" fill="#FC728B"/>
</g>
<defs>
<clipPath id="clip0_307_3503">
<rect width="24" height="24" fill="white"/>
</clipPath>
</defs>
</svg>
