<svg width="25" height="25" viewBox="0 0 25 25" fill="none" xmlns="http://www.w3.org/2000/svg">
<g clip-path="url(#clip0_307_3325)">
<path d="M24.4886 12.7339C24.4886 11.7097 24.4069 10.9622 24.2302 10.1871H12.7391V14.81H19.4841C19.3482 15.9589 18.6138 17.689 16.9819 18.8516L16.959 19.0064L20.5923 21.8712L20.844 21.8968C23.1558 19.7237 24.4886 16.5264 24.4886 12.7339Z" fill="#4285F4"/>
<path d="M12.7391 24.9141C16.0436 24.9141 18.8177 23.8068 20.844 21.8967L16.9819 18.8516C15.9484 19.5852 14.5613 20.0973 12.7391 20.0973C9.50254 20.0973 6.75557 17.9243 5.77636 14.9208L5.63282 14.9332L1.85489 17.909L1.80548 18.0488C3.81811 22.1181 7.9522 24.9141 12.7391 24.9141Z" fill="#34A853"/>
<path d="M5.77634 14.9208C5.51797 14.1457 5.36844 13.3152 5.36844 12.457C5.36844 11.5988 5.51797 10.7684 5.76275 9.99331L5.75591 9.82823L1.93062 6.80457L1.80547 6.86516C0.975969 8.5538 0.5 10.4501 0.5 12.457C0.5 14.464 0.975969 16.3602 1.80547 18.0488L5.77634 14.9208Z" fill="#FBBC05"/>
<path d="M12.7391 4.8167C15.0373 4.8167 16.5875 5.8271 17.4715 6.67147L20.9256 3.23884C18.8042 1.23187 16.0436 0 12.7391 0C7.9522 0 3.81811 2.7959 1.80548 6.86517L5.76276 9.99332C6.75558 6.98979 9.50254 4.8167 12.7391 4.8167Z" fill="#EB4335"/>
</g>
<defs>
<clipPath id="clip0_307_3325">
<rect width="24" height="25" fill="white" transform="translate(0.5)"/>
</clipPath>
</defs>
</svg>
