<svg width="38" height="38" viewBox="0 0 38 38" fill="none" xmlns="http://www.w3.org/2000/svg">
<path d="M22.1666 9.81666V15.8333C17.7491 15.9125 15.9125 17.7492 15.8333 22.1667H9.81663C5.06663 22.1667 3.16663 20.2667 3.16663 15.5167V9.81666C3.16663 5.06666 5.06663 3.16666 9.81663 3.16666H15.5166C20.2666 3.16666 22.1666 5.06666 22.1666 9.81666Z" stroke="black" stroke-width="1.5" stroke-linecap="round" stroke-linejoin="round"/>
<path d="M11.0199 9.29417C10.1808 8.72417 9.07244 8.72417 8.23328 9.32583M17.3533 9.29417C16.5141 8.72417 15.4058 8.72417 14.5666 9.32583M12.9199 18.0817H9.24661C8.77161 18.0817 8.39161 17.7017 8.39161 17.2267C8.39161 14.8675 10.3074 12.9517 12.6666 12.9517C13.6799 12.9517 14.6141 13.3 15.3424 13.8858" stroke="black" stroke-width="1.5" stroke-miterlimit="10" stroke-linecap="round" stroke-linejoin="round"/>
<path d="M34.8333 22.4833V28.1833C34.8333 32.9333 32.9333 34.8333 28.1833 34.8333H22.4833C17.7333 34.8333 15.8333 32.9333 15.8333 28.1833V22.1667C15.9124 17.7492 17.7491 15.9125 22.1666 15.8333H28.1833C32.9333 15.8333 34.8333 17.7333 34.8333 22.4833Z" stroke="black" stroke-width="1.5" stroke-linecap="round" stroke-linejoin="round"/>
<path d="M23.6866 21.565C22.8475 22.135 21.7391 22.135 20.9 21.5333M30.02 21.565C29.1808 22.135 28.0725 22.135 27.2333 21.5333M21.9133 25.6183H28.7533C29.2283 25.6183 29.6083 25.9983 29.6083 26.4733C29.6083 28.8325 27.6925 30.7483 25.3333 30.7483C22.9741 30.7483 21.0583 28.8325 21.0583 26.4733C21.0583 25.9983 21.4383 25.6183 21.9133 25.6183Z" stroke="black" stroke-width="1.5" stroke-miterlimit="10" stroke-linecap="round" stroke-linejoin="round"/>
</svg>
