<svg width="38" height="38" viewBox="0 0 38 38" fill="none" xmlns="http://www.w3.org/2000/svg">
<path d="M30.0833 14.25C30.0833 16.5458 29.4025 18.6517 28.2308 20.4092C27.3722 21.6897 26.2554 22.7765 24.9521 23.6C23.6487 24.4235 22.1876 24.9653 20.6625 25.1908C20.1241 25.2858 19.57 25.3333 19 25.3333C18.43 25.3333 17.8758 25.2858 17.3375 25.1908C15.8123 24.9653 14.3512 24.4235 13.0479 23.6C11.7445 22.7765 10.6277 21.6897 9.76914 20.4092C8.55362 18.5857 7.90871 16.4415 7.91664 14.25C7.91664 8.1225 12.8725 3.16666 19 3.16666C25.1275 3.16666 30.0833 8.1225 30.0833 14.25Z" stroke="black" stroke-width="1.5" stroke-linecap="round" stroke-linejoin="round"/>
<path d="M33.6458 29.2442L31.0333 29.8617C30.4475 30.0042 29.9883 30.4475 29.8616 31.0333L29.3075 33.3608C29.2395 33.6465 29.0934 33.9077 28.8855 34.1152C28.6776 34.3226 28.4161 34.4681 28.1303 34.5355C27.8444 34.6028 27.5455 34.5894 27.2668 34.4966C26.9882 34.4038 26.7409 34.2353 26.5525 34.01L19 25.3333L11.4475 34.0258C11.2591 34.2511 11.0117 34.4196 10.7331 34.5124C10.4545 34.6052 10.1555 34.6187 9.86967 34.5513C9.58381 34.484 9.32232 34.3384 9.11443 34.131C8.90654 33.9235 8.76044 33.6624 8.69247 33.3767L8.1383 31.0492C8.07094 30.7644 7.92568 30.504 7.71875 30.2971C7.51183 30.0901 7.25141 29.9449 6.96664 29.8775L4.35413 29.26C4.08042 29.1944 3.82906 29.0572 3.62579 28.8625C3.42253 28.6678 3.27466 28.4226 3.19733 28.1519C3.12001 27.8813 3.116 27.595 3.18572 27.3223C3.25545 27.0496 3.3964 26.8003 3.59413 26.6L9.76913 20.425C10.6277 21.7055 11.7445 22.7924 13.0479 23.6158C14.3512 24.4393 15.8123 24.9812 17.3375 25.2067C17.8758 25.3017 18.43 25.3492 19 25.3492C19.57 25.3492 20.1241 25.3017 20.6625 25.2067C23.8133 24.7475 26.5208 22.9583 28.2308 20.425L34.4058 26.6C35.2766 27.455 34.8491 28.9592 33.6458 29.2442ZM19.9183 9.46834L20.8525 11.3367C20.9791 11.59 21.3116 11.8433 21.6125 11.8908L23.3066 12.1758C24.3833 12.35 24.6366 13.1417 23.8608 13.9175L22.5466 15.2317C22.325 15.4533 22.1983 15.8808 22.2775 16.1975L22.6575 17.8283C22.9583 19.1108 22.2775 19.6175 21.1375 18.9367L19.5541 18.0025C19.3933 17.9167 19.2139 17.8718 19.0316 17.8718C18.8494 17.8718 18.6699 17.9167 18.5091 18.0025L16.9258 18.9367C15.7858 19.6017 15.105 19.1108 15.4058 17.8283L15.7858 16.1975C15.8491 15.8967 15.7383 15.4533 15.5166 15.2317L14.2025 13.9175C13.4266 13.1417 13.68 12.3658 14.7566 12.1758L16.4508 11.8908C16.7358 11.8433 17.0683 11.59 17.195 11.3367L18.1291 9.46834C18.5883 8.455 19.4116 8.455 19.9183 9.46834Z" stroke="black" stroke-width="1.5" stroke-linecap="round" stroke-linejoin="round"/>
</svg>
