<svg width="38" height="39" viewBox="0 0 38 39" fill="none" xmlns="http://www.w3.org/2000/svg">
<path d="M22.1667 10.767V16.7837C17.7492 16.8629 15.9125 18.6995 15.8334 23.117H9.81669C5.06669 23.117 3.16669 21.217 3.16669 16.467V10.767C3.16669 6.01703 5.06669 4.11703 9.81669 4.11703H15.5167C20.2667 4.11703 22.1667 6.01703 22.1667 10.767Z" stroke="black" stroke-width="1.5" stroke-linecap="round" stroke-linejoin="round"/>
<path d="M11.02 10.2445C10.1808 9.67454 9.0725 9.67454 8.23334 10.2762M17.3533 10.2445C16.5142 9.67454 15.4058 9.67454 14.5667 10.2762M12.92 19.032H9.24667C8.77167 19.032 8.39167 18.652 8.39167 18.177C8.39167 15.8179 10.3075 13.902 12.6667 13.902C13.68 13.902 14.6142 14.2504 15.3425 14.8362" stroke="black" stroke-width="1.5" stroke-miterlimit="10" stroke-linecap="round" stroke-linejoin="round"/>
<path d="M34.8333 23.4337V29.1337C34.8333 33.8837 32.9333 35.7837 28.1833 35.7837H22.4833C17.7333 35.7837 15.8333 33.8837 15.8333 29.1337V23.117C15.9125 18.6995 17.7491 16.8629 22.1666 16.7837H28.1833C32.9333 16.7837 34.8333 18.6837 34.8333 23.4337Z" stroke="black" stroke-width="1.5" stroke-linecap="round" stroke-linejoin="round"/>
<path d="M23.6867 22.5154C22.8475 23.0854 21.7392 23.0854 20.9 22.4837M30.02 22.5154C29.1809 23.0854 28.0725 23.0854 27.2334 22.4837M21.9134 26.5687H28.7534C29.2284 26.5687 29.6084 26.9487 29.6084 27.4237C29.6084 29.7829 27.6925 31.6987 25.3334 31.6987C22.9742 31.6987 21.0584 29.7829 21.0584 27.4237C21.0584 26.9487 21.4384 26.5687 21.9134 26.5687Z" stroke="black" stroke-width="1.5" stroke-miterlimit="10" stroke-linecap="round" stroke-linejoin="round"/>
</svg>
