<svg width="24" height="24" viewBox="0 0 24 24" fill="none" xmlns="http://www.w3.org/2000/svg">
<path d="M16.41 4.00001C18.35 4.00001 19.91 5.57001 19.91 7.50001C19.91 9.39001 18.41 10.93 16.54 11C16.4536 10.99 16.3664 10.99 16.28 11M18.34 20C19.06 19.85 19.74 19.56 20.3 19.13C21.86 17.96 21.86 16.03 20.3 14.86C19.75 14.44 19.08 14.16 18.37 14M9.16 10.87C9.06 10.86 8.94 10.86 8.83 10.87C7.6822 10.831 6.59464 10.3468 5.79763 9.51996C5.00062 8.69309 4.55674 7.58846 4.56 6.44001C4.56 3.99001 6.54 2.00001 9 2.00001C10.1762 1.97879 11.3127 2.4257 12.1595 3.24242C13.0062 4.05914 13.4938 5.17877 13.515 6.35501C13.5362 7.53124 13.0893 8.66773 12.2726 9.51446C11.4559 10.3612 10.3362 10.8488 9.16 10.87ZM4.16 14.56C1.74 16.18 1.74 18.82 4.16 20.43C6.91 22.27 11.42 22.27 14.17 20.43C16.59 18.81 16.59 16.17 14.17 14.56C11.43 12.73 6.92 12.73 4.16 14.56Z" stroke="#D1CAFF" stroke-width="1.5" stroke-linecap="round" stroke-linejoin="round"/>
</svg>
