<svg width="56" height="56" viewBox="0 0 56 56" fill="none" xmlns="http://www.w3.org/2000/svg">
<path d="M28 18.2604V30.2917M48.8083 20.1625V35.8375C48.8083 38.4042 47.4333 40.7875 45.2104 42.0937L31.5979 49.9542C29.375 51.2375 26.625 51.2375 24.3791 49.9542L10.7666 42.0937C9.67069 41.4583 8.76127 40.5457 8.12972 39.4475C7.49817 38.3493 7.16674 37.1043 7.16871 35.8375V20.1625C7.16871 17.5958 8.54371 15.2125 10.7666 13.9062L24.3791 6.04583C26.602 4.7625 29.352 4.7625 31.5979 6.04583L45.2104 13.9062C47.4333 15.2125 48.8083 17.5729 48.8083 20.1625Z" stroke="#FC728B" stroke-width="1.5" stroke-linecap="round" stroke-linejoin="round"/>
<path d="M28 37.625V37.8542" stroke="#FC728B" stroke-width="2" stroke-linecap="round" stroke-linejoin="round"/>
</svg>
