<svg width="56" height="55" viewBox="0 0 56 55" fill="none" xmlns="http://www.w3.org/2000/svg">
<path d="M28 17.7604V29.7917M48.8083 19.6625V35.3375C48.8083 37.9042 47.4333 40.2875 45.2104 41.5938L31.5979 49.4542C29.375 50.7375 26.625 50.7375 24.3792 49.4542L10.7667 41.5938C9.67074 40.9583 8.76131 40.0457 8.12976 38.9475C7.49822 37.8494 7.16678 36.6043 7.16876 35.3375V19.6625C7.16876 17.0958 8.54376 14.7125 10.7667 13.4063L24.3792 5.54584C26.6021 4.26251 29.3521 4.26251 31.5979 5.54584L45.2104 13.4063C47.4333 14.7125 48.8083 17.0729 48.8083 19.6625Z" stroke="#FC728B" stroke-width="1.5" stroke-linecap="round" stroke-linejoin="round"/>
<path d="M28 37.125V37.3542" stroke="#FC728B" stroke-width="2" stroke-linecap="round" stroke-linejoin="round"/>
</svg>
