<svg width="24" height="24" viewBox="0 0 24 24" fill="none" xmlns="http://www.w3.org/2000/svg">
<g clip-path="url(#clip0_349_3937)">
<path d="M17.2801 23.1H13.4801C12.9201 23.1 11.7001 22.93 11.0501 22.28L8.02011 19.94L8.94011 18.75L12.0401 21.15C12.2901 21.39 12.9201 21.59 13.4801 21.59H17.2801C18.1801 21.59 19.1501 20.87 19.3501 20.06L21.7701 12.71C21.9301 12.27 21.9001 11.87 21.6901 11.58C21.4701 11.27 21.0701 11.09 20.5801 11.09H16.5801C16.0601 11.09 15.5801 10.87 15.2501 10.49C14.9101 10.1 14.7601 9.57999 14.8401 9.03999L15.3401 5.82999C15.4601 5.26999 15.0801 4.63999 14.5401 4.45999C14.0501 4.27999 13.4201 4.53999 13.2001 4.85999L9.10011 10.96L7.86011 10.13L11.9601 4.02999C12.5901 3.08999 13.9701 2.63999 15.0501 3.04999C16.3001 3.45999 17.1001 4.83999 16.8201 6.11999L16.3301 9.26999C16.3201 9.33999 16.3201 9.43999 16.3901 9.51999C16.4401 9.56999 16.5101 9.59999 16.5901 9.59999H20.5901C21.5701 9.59999 22.4201 10.01 22.9201 10.72C23.4101 11.41 23.5101 12.32 23.1901 13.2L20.8001 20.48C20.4301 21.93 18.8901 23.1 17.2801 23.1Z" fill="#FC728B"/>
<path d="M6.37988 21.998H5.37988C3.52988 21.998 2.62988 21.128 2.62988 19.348V9.54801C2.62988 7.76801 3.52988 6.89801 5.37988 6.89801H6.37988C8.22988 6.89801 9.12988 7.76801 9.12988 9.54801V19.348C9.12988 21.128 8.22988 21.998 6.37988 21.998ZM5.37988 8.39801C4.28988 8.39801 4.12988 8.65801 4.12988 9.54801V19.348C4.12988 20.238 4.28988 20.498 5.37988 20.498H6.37988C7.46988 20.498 7.62988 20.238 7.62988 19.348V9.54801C7.62988 8.65801 7.46988 8.39801 6.37988 8.39801H5.37988Z" fill="#FC728B"/>
</g>
<defs>
<clipPath id="clip0_349_3937">
<rect width="24" height="24" fill="white"/>
</clipPath>
</defs>
</svg>
