<svg width="24" height="24" viewBox="0 0 24 24" fill="none" xmlns="http://www.w3.org/2000/svg">
<g clip-path="url(#clip0_307_3475)">
<path d="M17.28 23.1H13.48C12.92 23.1 11.7 22.93 11.05 22.28L8.01999 19.94L8.93999 18.75L12.04 21.15C12.29 21.39 12.92 21.59 13.48 21.59H17.28C18.18 21.59 19.15 20.87 19.35 20.06L21.77 12.71C21.93 12.27 21.9 11.87 21.69 11.58C21.47 11.27 21.07 11.09 20.58 11.09H16.58C16.06 11.09 15.58 10.87 15.25 10.49C14.91 10.1 14.76 9.58 14.84 9.04L15.34 5.83C15.46 5.27 15.08 4.64 14.54 4.46C14.05 4.28 13.42 4.54 13.2 4.86L9.09999 10.96L7.85999 10.13L11.96 4.03C12.59 3.09 13.97 2.64 15.05 3.05C16.3 3.46 17.1 4.84 16.82 6.12L16.33 9.27C16.32 9.34 16.32 9.44 16.39 9.52C16.44 9.57 16.51 9.6 16.59 9.6H20.59C21.57 9.6 22.42 10.01 22.92 10.72C23.41 11.41 23.51 12.32 23.19 13.2L20.8 20.48C20.43 21.93 18.89 23.1 17.28 23.1Z" fill="#FC728B"/>
<path d="M6.38 21.998H5.38C3.53 21.998 2.63 21.128 2.63 19.348V9.548C2.63 7.768 3.53 6.898 5.38 6.898H6.38C8.23 6.898 9.13 7.768 9.13 9.548V19.348C9.13 21.128 8.23 21.998 6.38 21.998ZM5.38 8.398C4.29 8.398 4.13001 8.658 4.13001 9.548V19.348C4.13001 20.238 4.29 20.498 5.38 20.498H6.38C7.47001 20.498 7.63 20.238 7.63 19.348V9.548C7.63 8.658 7.47001 8.398 6.38 8.398H5.38Z" fill="#FC728B"/>
</g>
<defs>
<clipPath id="clip0_307_3475">
<rect width="24" height="24" fill="white"/>
</clipPath>
</defs>
</svg>
